<svg width="500" height="102" viewBox="0 0 500 102" fill="none" xmlns="http://www.w3.org/2000/svg">
    <path d="M35.6653 71.2L27.6413 95H24.9893L18.0193 74.702L11.0153 95H8.39729L0.373291 71.2H2.95729L9.82529 91.668L16.9313 71.2H19.2773L26.2813 91.77L33.2513 71.2H35.6653Z" fill="#A7A9B6"/>
    <path d="M53.9791 86.806H39.0191C39.1551 88.6647 39.8691 90.172 41.1611 91.328C42.4531 92.4614 44.0851 93.028 46.0571 93.028C47.1677 93.028 48.1877 92.8354 49.1171 92.45C50.0464 92.042 50.8511 91.4527 51.5311 90.682L52.8911 92.246C52.0977 93.198 51.1004 93.9234 49.8991 94.422C48.7204 94.9207 47.4171 95.17 45.9891 95.17C44.1531 95.17 42.5211 94.7847 41.0931 94.014C39.6877 93.2207 38.5884 92.1327 37.7951 90.75C37.0017 89.3674 36.6051 87.8034 36.6051 86.058C36.6051 84.3127 36.9791 82.7487 37.7271 81.366C38.4977 79.9834 39.5404 78.9067 40.8551 78.136C42.1924 77.3654 43.6884 76.98 45.3431 76.98C46.9977 76.98 48.4824 77.3654 49.7971 78.136C51.1117 78.9067 52.1431 79.9834 52.8911 81.366C53.6391 82.726 54.0131 84.29 54.0131 86.058L53.9791 86.806ZM45.3431 79.054C43.6204 79.054 42.1697 79.6094 40.9911 80.72C39.8351 81.808 39.1777 83.236 39.0191 85.004H51.7011C51.5424 83.236 50.8737 81.808 49.6951 80.72C48.5391 79.6094 47.0884 79.054 45.3431 79.054Z" fill="#A7A9B6"/>
    <path d="M68.1406 76.98C69.8179 76.98 71.3366 77.3654 72.6966 78.136C74.0566 78.884 75.1219 79.9494 75.8926 81.332C76.6633 82.7147 77.0486 84.29 77.0486 86.058C77.0486 87.826 76.6633 89.4014 75.8926 90.784C75.1219 92.1667 74.0566 93.2434 72.6966 94.014C71.3366 94.7847 69.8179 95.17 68.1406 95.17C66.6446 95.17 65.2959 94.8527 64.0946 94.218C62.9159 93.5834 61.9639 92.6654 61.2386 91.464V95H58.9266V69.772H61.3406V80.516C62.0886 79.36 63.0406 78.4874 64.1966 77.898C65.3753 77.286 66.6899 76.98 68.1406 76.98ZM67.9706 93.028C69.2173 93.028 70.3506 92.7447 71.3706 92.178C72.3906 91.5887 73.1839 90.7614 73.7506 89.696C74.3399 88.6307 74.6346 87.418 74.6346 86.058C74.6346 84.698 74.3399 83.4854 73.7506 82.42C73.1839 81.3547 72.3906 80.5387 71.3706 79.972C70.3506 79.3827 69.2173 79.088 67.9706 79.088C66.7013 79.088 65.5566 79.3827 64.5366 79.972C63.5393 80.5387 62.7459 81.3547 62.1566 82.42C61.5899 83.4854 61.3066 84.698 61.3066 86.058C61.3066 87.418 61.5899 88.6307 62.1566 89.696C62.7459 90.7614 63.5393 91.5887 64.5366 92.178C65.5566 92.7447 66.7013 93.028 67.9706 93.028Z" fill="#A7A9B6"/>
    <path d="M91.378 71.2H101.068C103.584 71.2 105.805 71.71 107.732 72.73C109.659 73.7274 111.155 75.1327 112.22 76.946C113.285 78.7367 113.818 80.788 113.818 83.1C113.818 85.412 113.285 87.4747 112.22 89.288C111.155 91.0787 109.659 92.484 107.732 93.504C105.805 94.5014 103.584 95 101.068 95H91.378V71.2ZM100.932 92.824C103.017 92.824 104.842 92.416 106.406 91.6C107.97 90.7614 109.183 89.6167 110.044 88.166C110.905 86.6927 111.336 85.004 111.336 83.1C111.336 81.196 110.905 79.5187 110.044 78.068C109.183 76.5947 107.97 75.45 106.406 74.634C104.842 73.7954 103.017 73.376 100.932 73.376H93.894V92.824H100.932Z" fill="#A7A9B6"/>
    <path d="M134.53 86.806H119.57C119.706 88.6647 120.42 90.172 121.712 91.328C123.004 92.4614 124.636 93.028 126.608 93.028C127.719 93.028 128.739 92.8354 129.668 92.45C130.597 92.042 131.402 91.4527 132.082 90.682L133.442 92.246C132.649 93.198 131.651 93.9234 130.45 94.422C129.271 94.9207 127.968 95.17 126.54 95.17C124.704 95.17 123.072 94.7847 121.644 94.014C120.239 93.2207 119.139 92.1327 118.346 90.75C117.553 89.3674 117.156 87.8034 117.156 86.058C117.156 84.3127 117.53 82.7487 118.278 81.366C119.049 79.9834 120.091 78.9067 121.406 78.136C122.743 77.3654 124.239 76.98 125.894 76.98C127.549 76.98 129.033 77.3654 130.348 78.136C131.663 78.9067 132.694 79.9834 133.442 81.366C134.19 82.726 134.564 84.29 134.564 86.058L134.53 86.806ZM125.894 79.054C124.171 79.054 122.721 79.6094 121.542 80.72C120.386 81.808 119.729 83.236 119.57 85.004H132.252C132.093 83.236 131.425 81.808 130.246 80.72C129.09 79.6094 127.639 79.054 125.894 79.054Z" fill="#A7A9B6"/>
    <path d="M154.173 77.116L146.217 95H143.735L135.813 77.116H138.329L145.027 92.348L151.793 77.116H154.173Z" fill="#A7A9B6"/>
    <path d="M172.647 86.806H157.687C157.823 88.6647 158.537 90.172 159.829 91.328C161.121 92.4614 162.753 93.028 164.725 93.028C165.836 93.028 166.856 92.8354 167.785 92.45C168.714 92.042 169.519 91.4527 170.199 90.682L171.559 92.246C170.766 93.198 169.768 93.9234 168.567 94.422C167.388 94.9207 166.085 95.17 164.657 95.17C162.821 95.17 161.189 94.7847 159.761 94.014C158.356 93.2207 157.256 92.1327 156.463 90.75C155.67 89.3674 155.273 87.8034 155.273 86.058C155.273 84.3127 155.647 82.7487 156.395 81.366C157.166 79.9834 158.208 78.9067 159.523 78.136C160.86 77.3654 162.356 76.98 164.011 76.98C165.666 76.98 167.15 77.3654 168.465 78.136C169.78 78.9067 170.811 79.9834 171.559 81.366C172.307 82.726 172.681 84.29 172.681 86.058L172.647 86.806ZM164.011 79.054C162.288 79.054 160.838 79.6094 159.659 80.72C158.503 81.808 157.846 83.236 157.687 85.004H170.369C170.21 83.236 169.542 81.808 168.363 80.72C167.207 79.6094 165.756 79.054 164.011 79.054Z" fill="#A7A9B6"/>
    <path d="M177.595 69.772H180.009V95H177.595V69.772Z" fill="#A7A9B6"/>
    <path d="M194.035 95.17C192.313 95.17 190.76 94.7847 189.377 94.014C187.995 93.2207 186.907 92.1327 186.113 90.75C185.32 89.3674 184.923 87.8034 184.923 86.058C184.923 84.3127 185.32 82.7487 186.113 81.366C186.907 79.9834 187.995 78.9067 189.377 78.136C190.76 77.3654 192.313 76.98 194.035 76.98C195.758 76.98 197.311 77.3654 198.693 78.136C200.076 78.9067 201.153 79.9834 201.923 81.366C202.717 82.7487 203.113 84.3127 203.113 86.058C203.113 87.8034 202.717 89.3674 201.923 90.75C201.153 92.1327 200.076 93.2207 198.693 94.014C197.311 94.7847 195.758 95.17 194.035 95.17ZM194.035 93.028C195.305 93.028 196.438 92.7447 197.435 92.178C198.455 91.5887 199.249 90.7614 199.815 89.696C200.382 88.6307 200.665 87.418 200.665 86.058C200.665 84.698 200.382 83.4854 199.815 82.42C199.249 81.3547 198.455 80.5387 197.435 79.972C196.438 79.3827 195.305 79.088 194.035 79.088C192.766 79.088 191.621 79.3827 190.601 79.972C189.604 80.5387 188.811 81.3547 188.221 82.42C187.655 83.4854 187.371 84.698 187.371 86.058C187.371 87.418 187.655 88.6307 188.221 89.696C188.811 90.7614 189.604 91.5887 190.601 92.178C191.621 92.7447 192.766 93.028 194.035 93.028Z" fill="#A7A9B6"/>
    <path d="M217.256 76.98C218.933 76.98 220.452 77.3654 221.812 78.136C223.172 78.884 224.237 79.9494 225.008 81.332C225.779 82.7147 226.164 84.29 226.164 86.058C226.164 87.8487 225.779 89.4354 225.008 90.818C224.237 92.2007 223.172 93.2774 221.812 94.048C220.475 94.796 218.956 95.17 217.256 95.17C215.805 95.17 214.491 94.8754 213.312 94.286C212.156 93.674 211.204 92.79 210.456 91.634V101.596H208.042V77.116H210.354V80.652C211.079 79.4734 212.031 78.5667 213.21 77.932C214.411 77.2974 215.76 76.98 217.256 76.98ZM217.086 93.028C218.332 93.028 219.466 92.7447 220.486 92.178C221.506 91.5887 222.299 90.7614 222.866 89.696C223.455 88.6307 223.75 87.418 223.75 86.058C223.75 84.698 223.455 83.4967 222.866 82.454C222.299 81.3887 221.506 80.5614 220.486 79.972C219.466 79.3827 218.332 79.088 217.086 79.088C215.816 79.088 214.672 79.3827 213.652 79.972C212.655 80.5614 211.861 81.3887 211.272 82.454C210.705 83.4967 210.422 84.698 210.422 86.058C210.422 87.418 210.705 88.6307 211.272 89.696C211.861 90.7614 212.655 91.5887 213.652 92.178C214.672 92.7447 215.816 93.028 217.086 93.028Z" fill="#A7A9B6"/>
    <path d="M246.657 86.806H231.697C231.833 88.6647 232.547 90.172 233.839 91.328C235.131 92.4614 236.763 93.028 238.735 93.028C239.845 93.028 240.865 92.8354 241.795 92.45C242.724 92.042 243.529 91.4527 244.209 90.682L245.569 92.246C244.775 93.198 243.778 93.9234 242.577 94.422C241.398 94.9207 240.095 95.17 238.667 95.17C236.831 95.17 235.199 94.7847 233.771 94.014C232.365 93.2207 231.266 92.1327 230.473 90.75C229.679 89.3674 229.283 87.8034 229.283 86.058C229.283 84.3127 229.657 82.7487 230.405 81.366C231.175 79.9834 232.218 78.9067 233.533 78.136C234.87 77.3654 236.366 76.98 238.021 76.98C239.675 76.98 241.16 77.3654 242.475 78.136C243.789 78.9067 244.821 79.9834 245.569 81.366C246.317 82.726 246.691 84.29 246.691 86.058L246.657 86.806ZM238.021 79.054C236.298 79.054 234.847 79.6094 233.669 80.72C232.513 81.808 231.855 83.236 231.697 85.004H244.379C244.22 83.236 243.551 81.808 242.373 80.72C241.217 79.6094 239.766 79.054 238.021 79.054Z" fill="#A7A9B6"/>
    <path d="M253.916 80.618C254.483 79.4167 255.322 78.51 256.432 77.898C257.566 77.286 258.96 76.98 260.614 76.98V79.326L260.036 79.292C258.155 79.292 256.682 79.87 255.616 81.026C254.551 82.182 254.018 83.8027 254.018 85.888V95H251.604V77.116H253.916V80.618Z" fill="#A7A9B6"/>
    <path d="M19.3091 26.944L10.1571 36.224V48H5.42106V3.20002H10.1571V30.272L36.4611 3.20002H41.9011L22.5091 23.488L43.2451 48H37.6131L19.3091 26.944Z" fill="#A7A9B6"/>
    <path d="M62.1586 48.32C58.9159 48.32 55.9932 47.5947 53.3906 46.144C50.7879 44.6507 48.7399 42.6027 47.2466 40C45.7532 37.3974 45.0066 34.4534 45.0066 31.168C45.0066 27.8827 45.7532 24.9387 47.2466 22.336C48.7399 19.7334 50.7879 17.7067 53.3906 16.256C55.9932 14.8054 58.9159 14.08 62.1586 14.08C65.4012 14.08 68.3239 14.8054 70.9266 16.256C73.5292 17.7067 75.5559 19.7334 77.0066 22.336C78.4999 24.9387 79.2466 27.8827 79.2466 31.168C79.2466 34.4534 78.4999 37.3974 77.0066 40C75.5559 42.6027 73.5292 44.6507 70.9266 46.144C68.3239 47.5947 65.4012 48.32 62.1586 48.32ZM62.1586 44.288C64.5479 44.288 66.6812 43.7547 68.5586 42.688C70.4786 41.5787 71.9719 40.0214 73.0386 38.016C74.1052 36.0107 74.6386 33.728 74.6386 31.168C74.6386 28.608 74.1052 26.3254 73.0386 24.32C71.9719 22.3147 70.4786 20.7787 68.5586 19.712C66.6812 18.6027 64.5479 18.048 62.1586 18.048C59.7692 18.048 57.6146 18.6027 55.6946 19.712C53.8172 20.7787 52.3239 22.3147 51.2146 24.32C50.1479 26.3254 49.6146 28.608 49.6146 31.168C49.6146 33.728 50.1479 36.0107 51.2146 38.016C52.3239 40.0214 53.8172 41.5787 55.6946 42.688C57.6146 43.7547 59.7692 44.288 62.1586 44.288Z" fill="#A7A9B6"/>
    <path d="M105.676 14.08C109.9 14.08 113.249 15.3174 115.724 17.792C118.241 20.224 119.5 23.7867 119.5 28.48V48H114.956V28.928C114.956 25.4294 114.081 22.7627 112.332 20.928C110.582 19.0934 108.086 18.176 104.844 18.176C101.217 18.176 98.3369 19.264 96.2036 21.44C94.1129 23.5734 93.0676 26.5387 93.0676 30.336V48H88.5236V14.336H92.8756V20.544C94.1129 18.496 95.8196 16.9174 97.9956 15.808C100.214 14.656 102.774 14.08 105.676 14.08Z" fill="#A7A9B6"/>
    <path d="M144.316 31.104L136.38 38.4V48H131.836V0.512024H136.38V32.704L156.476 14.336H162.108L147.708 28.096L163.452 48H157.884L144.316 31.104Z" fill="#A7A9B6"/>
    <path d="M182.659 48.32C179.416 48.32 176.493 47.5947 173.891 46.144C171.288 44.6507 169.24 42.6027 167.747 40C166.253 37.3974 165.507 34.4534 165.507 31.168C165.507 27.8827 166.253 24.9387 167.747 22.336C169.24 19.7334 171.288 17.7067 173.891 16.256C176.493 14.8054 179.416 14.08 182.659 14.08C185.901 14.08 188.824 14.8054 191.427 16.256C194.029 17.7067 196.056 19.7334 197.507 22.336C199 24.9387 199.747 27.8827 199.747 31.168C199.747 34.4534 199 37.3974 197.507 40C196.056 42.6027 194.029 44.6507 191.427 46.144C188.824 47.5947 185.901 48.32 182.659 48.32ZM182.659 44.288C185.048 44.288 187.181 43.7547 189.059 42.688C190.979 41.5787 192.472 40.0214 193.539 38.016C194.605 36.0107 195.139 33.728 195.139 31.168C195.139 28.608 194.605 26.3254 193.539 24.32C192.472 22.3147 190.979 20.7787 189.059 19.712C187.181 18.6027 185.048 18.048 182.659 18.048C180.269 18.048 178.115 18.6027 176.195 19.712C174.317 20.7787 172.824 22.3147 171.715 24.32C170.648 26.3254 170.115 28.608 170.115 31.168C170.115 33.728 170.648 36.0107 171.715 38.016C172.824 40.0214 174.317 41.5787 176.195 42.688C178.115 43.7547 180.269 44.288 182.659 44.288Z" fill="#A7A9B6"/>
    <path d="M236.374 14.336L221.398 48H216.726L201.814 14.336H206.55L219.158 43.008L231.894 14.336H236.374Z" fill="#A7A9B6"/>
    <path d="M307.012 3.20002V48H302.468V12.16L284.868 42.304H282.628L265.028 12.352V48H260.484V3.20002H264.388L283.844 36.416L303.108 3.20002H307.012Z" fill="#A7A9B6"/>
    <path d="M332.425 14.08C336.819 14.08 340.19 15.1894 342.537 17.408C344.883 19.584 346.057 22.8267 346.057 27.136V48H341.705V42.752C340.681 44.5014 339.166 45.8667 337.161 46.848C335.198 47.8294 332.851 48.32 330.121 48.32C326.366 48.32 323.379 47.424 321.161 45.632C318.942 43.84 317.833 41.472 317.833 38.528C317.833 35.6694 318.857 33.3654 320.905 31.616C322.995 29.8667 326.302 28.992 330.825 28.992H341.513V26.944C341.513 24.0427 340.702 21.8454 339.081 20.352C337.459 18.816 335.091 18.048 331.977 18.048C329.843 18.048 327.795 18.4107 325.833 19.136C323.87 19.8187 322.185 20.7787 320.777 22.016L318.729 18.624C320.435 17.1734 322.483 16.064 324.873 15.296C327.262 14.4854 329.779 14.08 332.425 14.08ZM330.825 44.736C333.385 44.736 335.582 44.16 337.417 43.008C339.251 41.8134 340.617 40.1067 341.513 37.888V32.384H330.953C325.193 32.384 322.313 34.3894 322.313 38.4C322.313 40.3627 323.059 41.92 324.553 43.072C326.046 44.1814 328.137 44.736 330.825 44.736Z" fill="#A7A9B6"/>
    <path d="M370.879 31.104L362.943 38.4V48H358.399V0.512024H362.943V32.704L383.039 14.336H388.671L374.271 28.096L390.015 48H384.447L370.879 31.104Z" fill="#A7A9B6"/>
    <path d="M404.86 48.32C402.129 48.32 399.505 47.936 396.988 47.168C394.513 46.3574 392.572 45.3547 391.164 44.16L393.212 40.576C394.62 41.6854 396.391 42.6027 398.524 43.328C400.657 44.0107 402.876 44.352 405.18 44.352C408.252 44.352 410.513 43.8827 411.964 42.944C413.457 41.9627 414.204 40.5974 414.204 38.848C414.204 37.6107 413.799 36.6507 412.988 35.968C412.177 35.2427 411.153 34.7094 409.916 34.368C408.679 33.984 407.036 33.6214 404.988 33.28C402.257 32.768 400.06 32.256 398.396 31.744C396.732 31.1894 395.303 30.272 394.108 28.992C392.956 27.712 392.38 25.9414 392.38 23.68C392.38 20.864 393.553 18.56 395.9 16.768C398.247 14.976 401.511 14.08 405.692 14.08C407.868 14.08 410.044 14.3787 412.22 14.976C414.396 15.5307 416.188 16.2774 417.596 17.216L415.612 20.864C412.839 18.944 409.532 17.984 405.692 17.984C402.791 17.984 400.593 18.496 399.1 19.52C397.649 20.544 396.924 21.888 396.924 23.552C396.924 24.832 397.329 25.856 398.14 26.624C398.993 27.392 400.039 27.968 401.276 28.352C402.513 28.6934 404.22 29.056 406.396 29.44C409.084 29.952 411.239 30.464 412.86 30.976C414.481 31.488 415.868 32.3627 417.02 33.6C418.172 34.8374 418.748 36.544 418.748 38.72C418.748 41.664 417.511 44.0107 415.036 45.76C412.604 47.4667 409.212 48.32 404.86 48.32Z" fill="#A7A9B6"/>
    <path d="M427.149 14.336H431.693V48H427.149V14.336ZM429.453 6.97602C428.514 6.97602 427.725 6.65602 427.085 6.01603C426.445 5.37603 426.125 4.60803 426.125 3.71202C426.125 2.85869 426.445 2.11202 427.085 1.47202C427.725 0.832024 428.514 0.512024 429.453 0.512024C430.391 0.512024 431.181 0.832024 431.821 1.47202C432.461 2.06936 432.781 2.79469 432.781 3.64803C432.781 4.58669 432.461 5.37603 431.821 6.01603C431.181 6.65602 430.391 6.97602 429.453 6.97602Z" fill="#A7A9B6"/>
    <path d="M486.32 14.08C490.544 14.08 493.851 15.296 496.24 17.728C498.672 20.16 499.888 23.744 499.888 28.48V48H495.344V28.928C495.344 25.4294 494.491 22.7627 492.784 20.928C491.12 19.0934 488.752 18.176 485.68 18.176C482.181 18.176 479.429 19.264 477.424 21.44C475.419 23.5734 474.416 26.5387 474.416 30.336V48H469.872V28.928C469.872 25.4294 469.019 22.7627 467.312 20.928C465.648 19.0934 463.259 18.176 460.144 18.176C456.688 18.176 453.936 19.264 451.888 21.44C449.883 23.5734 448.88 26.5387 448.88 30.336V48H444.336V14.336H448.688V20.48C449.883 18.432 451.547 16.8534 453.68 15.744C455.813 14.6347 458.267 14.08 461.04 14.08C463.856 14.08 466.288 14.6774 468.336 15.872C470.427 17.0667 471.984 18.8374 473.008 21.184C474.245 18.9654 476.016 17.2374 478.32 16C480.667 14.72 483.333 14.08 486.32 14.08Z" fill="#A7A9B6"/>
</svg>