<svg width="20" height="17" viewBox="0 0 20 17" fill="none" xmlns="http://www.w3.org/2000/svg">
<path d="M7.75417 11.7181C7.75417 12.6434 7.3 14.1574 6.225 14.1574C5.15 14.1574 4.69583 12.6434 4.69583 11.7181C4.69583 10.7929 5.15 9.27889 6.225 9.27889C7.3 9.27889 7.75417 10.7929 7.75417 11.7181ZM20 9.48253C20 10.8947 19.8667 12.391 19.2708 13.6881C17.6917 17.0792 13.35 16.9995 10.2417 16.9995C7.08333 16.9995 2.48333 17.119 0.841667 13.6881C0.233333 12.4043 0 10.8947 0 9.48253C0 7.62764 0.579167 5.87456 1.72917 4.45351C1.5125 3.75406 1.40833 3.01918 1.40833 2.29316C1.40833 1.34137 1.6125 0.863256 2.01667 0C3.90417 0 5.1125 0.398426 6.55 1.5937C7.75833 1.28824 9 1.15101 10.2458 1.15101C11.3708 1.15101 12.5042 1.27939 13.5958 1.55829C15.0125 0.376291 16.2208 0 18.0875 0C18.4958 0.863256 18.6958 1.34137 18.6958 2.29316C18.6958 3.01918 18.5875 3.74077 18.375 4.42695C19.5208 5.86128 20 7.62764 20 9.48253ZM17.3208 11.7181C17.3208 9.77471 16.2083 8.06148 14.2583 8.06148C13.4708 8.06148 12.7167 8.212 11.925 8.3271C11.3042 8.42892 10.6833 8.46876 10.0458 8.46876C9.4125 8.46876 8.79167 8.42892 8.16667 8.3271C7.3875 8.212 6.625 8.06148 5.83333 8.06148C3.88333 8.06148 2.77083 9.77471 2.77083 11.7181C2.77083 15.605 6.12083 16.2026 9.0375 16.2026H11.0458C13.975 16.2026 17.3208 15.6094 17.3208 11.7181ZM13.8792 9.27889C12.8042 9.27889 12.35 10.7929 12.35 11.7181C12.35 12.6434 12.8042 14.1574 13.8792 14.1574C14.9542 14.1574 15.4083 12.6434 15.4083 11.7181C15.4083 10.7929 14.9542 9.27889 13.8792 9.27889Z" fill="#A7A9B6"/>
</svg>
