<svg width="21" height="21" viewBox="0 0 21 21" fill="none" xmlns="http://www.w3.org/2000/svg">
<path d="M10.5 0C4.6971 0 0 4.69617 0 10.5C0 16.3029 4.69617 21 10.5 21C12.5388 21 14.5367 20.4013 16.233 19.297C16.7413 18.9661 16.8522 18.2687 16.4681 17.7994L16.0372 17.273C15.7124 16.8763 15.1405 16.779 14.7089 17.0559C13.4603 17.8566 11.9951 18.2903 10.5 18.2903C6.2044 18.2903 2.70968 14.7956 2.70968 10.5C2.70968 6.2044 6.2044 2.70968 10.5 2.70968C14.7398 2.70968 18.2903 5.14919 18.2903 9.48387C18.2903 11.126 17.3973 12.86 15.8275 13.0273C15.0929 13.0081 15.1115 12.483 15.2569 11.7561L16.249 6.62851C16.3704 6.00151 15.8901 5.41935 15.2515 5.41935H13.347C13.2064 5.41935 13.0707 5.47111 12.9658 5.56477C12.8609 5.65842 12.7942 5.78741 12.7783 5.92712L12.7779 5.93102C12.1557 5.17311 11.0654 5.00909 10.2388 5.00909C7.08119 5.00909 4.40323 7.644 4.40323 11.4217C4.40323 14.1866 5.96066 15.9041 8.46774 15.9041C9.61021 15.9041 10.8967 15.2421 11.6428 14.2811C12.0459 15.7251 13.3623 15.725 14.6365 15.725C19.2476 15.725 21 12.6931 21 9.48387C21 3.71111 16.3437 0 10.5 0ZM9.5821 12.8892C8.6401 12.8892 8.05494 12.2277 8.05494 11.163C8.05494 9.25804 9.35808 8.08373 10.5373 8.08373C11.4811 8.08373 12.0446 8.72901 12.0446 9.80988C12.0446 11.7177 10.6103 12.8892 9.5821 12.8892Z" fill="#A7A9B6"/>
</svg>
